<svg xmlns="http://www.w3.org/2000/svg" xmlns:xlink="http://www.w3.org/1999/xlink" width="288" height="274" viewBox="0 0 288 274">
    <defs>
        <path id="a" d="M.519 35.824c21.764 6.734 43.384 26.739 43.384 26.739l4.82-23.99 24.505-3.142C57.16 11.709 23.013.399 23.013.399L.519 35.824z"/>
        <path id="c" d="M.518 35.43l24.504 3.143 4.82 23.99s21.62-20.005 43.384-26.74L50.732.4S16.584 11.709.518 35.43z"/>
    </defs>
    <g fill="none" fill-rule="evenodd">
        <path fill="#E24026" d="M233.153 41.75s34.146 11.31 50.214 35.033l-24.505 3.141-4.82 23.99s-21.62-20.005-43.383-26.739l22.494-35.425z"/>
        <g transform="translate(210.14 41.351)">
            <mask id="b" fill="#fff">
                <use xlink:href="#a"/>
            </mask>
            <path fill="#C12E1D" d="M40.073 3.195L19.775 52.38l-42.593-21.232L12.998-16.3z" mask="url(#b)"/>
        </g>
        <path stroke="#1D1D1B" stroke-width="3" d="M233.153 41.75s34.146 11.31 50.214 35.033l-24.505 3.141-4.82 23.99s-21.62-20.005-43.383-26.739l22.494-35.425z"/>
        <path fill="#E24026" d="M54.732 41.75S20.585 53.06 4.518 76.783l24.504 3.141 4.82 23.99s21.62-20.005 43.384-26.739L54.732 41.75z"/>
        <g transform="translate(4 41.351)">
            <mask id="d" fill="#fff">
                <use xlink:href="#c"/>
            </mask>
            <path fill="#C12E1D" d="M36.125 3.3l17.382 50.64 40.611-20.086-35.815-47.446z" mask="url(#d)"/>
        </g>
        <g>
            <path stroke="#1D1D1B" stroke-width="3" d="M54.732 41.75S20.585 53.06 4.518 76.783l24.504 3.141 4.82 23.99s21.62-20.005 43.384-26.739L54.732 41.75z"/>
            <path fill="#E24026" d="M37.247 30.39s106.196-56.747 214.478 0L226.28 76.034s-82.836-43.278-165.663 0L37.247 30.39z"/>
            <path stroke="#1D1D1B" stroke-width="3" d="M37.247 30.39s106.196-56.747 214.478 0L226.28 76.034s-82.836-43.278-165.663 0L37.247 30.39z"/>
            <path fill="#FEFEFE" d="M63.631 43.926c2.28-.89 3.424-1.319 5.721-2.143l-1.97-5.432c1.632-.586 2.45-.872 4.09-1.426l4.836 14.168a174.67 174.67 0 0 0-3.822 1.332l-2.105-5.805a183.516 183.516 0 0 0-5.643 2.114l2.265 5.746c-1.514.59-2.269.893-3.773 1.513-2.301-5.53-3.452-8.295-5.755-13.824 1.61-.664 2.418-.988 4.038-1.62l2.118 5.377M80.777 39.805c.174.57.45 1.06.825 1.472.376.413.812.739 1.307.978.496.24 1.03.383 1.603.431a4.833 4.833 0 0 0 1.723-.17 4.813 4.813 0 0 0 1.559-.749 4.597 4.597 0 0 0 1.15-1.203c.302-.463.506-.968.61-1.514a3.79 3.79 0 0 0-.07-1.685 3.736 3.736 0 0 0-.767-1.502 4.06 4.06 0 0 0-1.302-1.013 4.586 4.586 0 0 0-1.644-.453 4.957 4.957 0 0 0-1.784.173 4.945 4.945 0 0 0-1.613.779 4.45 4.45 0 0 0-1.157 1.237 4.113 4.113 0 0 0-.571 1.538 3.716 3.716 0 0 0 .131 1.68m-4.171 1.306c-.346-1.056-.458-2.11-.328-3.158.13-1.05.47-2.037 1.02-2.957.552-.92 1.308-1.736 2.266-2.443.96-.707 2.094-1.247 3.396-1.612 1.288-.36 2.533-.488 3.727-.385 1.194.104 2.271.407 3.227.906a7.47 7.47 0 0 1 2.423 1.99 7.263 7.263 0 0 1 1.374 2.867 7.525 7.525 0 0 1 .093 3.171 7.91 7.91 0 0 1-1.145 2.867c-.568.878-1.31 1.643-2.227 2.302-.917.658-1.971 1.152-3.17 1.487-1.212.34-2.374.468-3.498.38-1.122-.086-2.153-.355-3.094-.81a8.061 8.061 0 0 1-2.479-1.851 7.524 7.524 0 0 1-1.585-2.754M99.03 27.479l1.648 7.97c.088.427.196.861.323 1.301.125.44.311.825.557 1.153.244.328.573.569.986.723.413.154.95.166 1.616.038.666-.127 1.157-.336 1.476-.63.32-.294.535-.64.646-1.035.112-.397.145-.824.098-1.28a17.616 17.616 0 0 0-.186-1.327l-1.442-8.008c1.68-.3 2.52-.442 4.206-.71l1.377 8.563c.37 2.3.088 4.064-.822 5.303-.91 1.238-2.471 2.048-4.705 2.476-2.233.427-3.993.253-5.308-.56-1.316-.811-2.241-2.345-2.755-4.616l-1.915-8.46c1.677-.377 2.518-.556 4.2-.901M121.962 27.83c-.49-.294-.975-.499-1.45-.613a3.877 3.877 0 0 0-1.356-.098c-.543.062-.972.233-1.285.511-.313.278-.446.608-.398.99a.892.892 0 0 0 .335.617c.192.15.433.271.723.362.29.093.614.165.97.217.357.052.711.112 1.06.18 1.402.272 2.448.737 3.14 1.38.69.644 1.086 1.535 1.193 2.669.071.763 0 1.468-.207 2.112a4.431 4.431 0 0 1-1.01 1.703c-.466.492-1.054.898-1.763 1.222-.71.323-1.53.539-2.46.651-1.928.233-3.781-.084-5.599-.955.5-1.34.755-2.01 1.275-3.348.677.428 1.325.728 1.947.901a4.587 4.587 0 0 0 1.794.154c.658-.08 1.129-.28 1.419-.607.288-.325.414-.672.371-1.04a1.264 1.264 0 0 0-.19-.568c-.101-.155-.258-.29-.468-.406a3.351 3.351 0 0 0-.803-.296c-.327-.081-.726-.174-1.184-.257-.54-.098-1.089-.2-1.62-.323a5.145 5.145 0 0 1-1.462-.576 3.654 3.654 0 0 1-1.133-1.054c-.314-.444-.526-1.031-.632-1.765-.106-.733-.07-1.416.108-2.05.179-.633.478-1.196.902-1.688.423-.492.97-.902 1.64-1.228.67-.327 1.441-.543 2.31-.645.812-.096 1.672-.09 2.578.02.905.11 1.782.323 2.629.641-.559 1.273-.834 1.91-1.374 3.188M136.299 26.275c-2.002.079-3.003.129-5.003.251l.155 2.496c1.868-.115 2.802-.162 4.67-.238l.135 3.292c-1.841.074-2.762.121-4.602.234l.16 2.575c1.925-.119 2.89-.167 4.816-.242l.13 3.292c-3.494.137-5.24.24-8.729.52l-1.204-14.916a191.38 191.38 0 0 1 9.341-.556c.053 1.317.079 1.975.13 3.292M154.807 29.601c3.292.142 4.938.243 8.226.506a20.345 20.345 0 0 1-.279 2.148 7.454 7.454 0 0 1-1.893 3.747 6.998 6.998 0 0 1-1.836 1.387 8.562 8.562 0 0 1-2.225.793 9.997 9.997 0 0 1-2.496.197c-1.192-.05-2.273-.279-3.247-.689a7.716 7.716 0 0 1-2.513-1.671 7.529 7.529 0 0 1-1.644-2.52c-.395-.975-.593-2.05-.587-3.228.006-1.164.212-2.232.625-3.201a6.79 6.79 0 0 1 1.773-2.47c.767-.677 1.695-1.195 2.78-1.549 1.086-.354 2.295-.505 3.62-.449 1.718.075 3.207.495 4.454 1.25 1.245.753 2.187 1.87 2.82 3.338-1.639.488-2.454.74-4.073 1.257-.32-.84-.769-1.455-1.343-1.842-.575-.388-1.245-.599-2.005-.632a4.294 4.294 0 0 0-1.733.26 3.64 3.64 0 0 0-1.348.89 4.328 4.328 0 0 0-.895 1.434c-.22.563-.337 1.195-.355 1.896a5.784 5.784 0 0 0 .219 1.773c.16.546.407 1.022.742 1.43a3.55 3.55 0 0 0 1.256.963c.502.236 1.089.368 1.763.397a5.3 5.3 0 0 0 1.162-.076 3.17 3.17 0 0 0 1.024-.366 2.44 2.44 0 0 0 .777-.702c.211-.293.365-.655.46-1.087a188.15 188.15 0 0 0-3.36-.17l.13-3.014M169.986 30.872l.779.088c.814.094 1.458.012 1.933-.248.475-.262.752-.686.827-1.277.076-.59-.086-1.072-.488-1.441-.402-.37-1.018-.605-1.846-.7a159.64 159.64 0 0 0-.792-.09l-.413 3.668m7.797 9.378c-1.97-.302-2.958-.441-4.934-.697a192.279 192.279 0 0 0-3.145-6.176l-.645 5.72c-1.589-.178-2.385-.26-3.977-.408.558-5.959.836-8.939 1.395-14.898 2.652.247 3.977.388 6.623.71.91.112 1.689.336 2.334.668.645.333 1.157.74 1.535 1.221a4.11 4.11 0 0 1 .778 1.594c.14.582.163 1.188.07 1.816-.166 1.126-.593 1.995-1.272 2.613-.68.619-1.598.975-2.755 1.078a180.173 180.173 0 0 1 3.993 6.76M185.08 33.08l.772.141c.809.15 1.457.112 1.95-.115.494-.229.8-.633.916-1.217.117-.585-.013-1.076-.389-1.471-.377-.397-.977-.674-1.799-.826a161.74 161.74 0 0 0-.785-.144l-.665 3.631m7.156 9.893a180.47 180.47 0 0 0-4.888-1.035 192.768 192.768 0 0 0-2.722-6.378l-1.037 5.662a179.754 179.754 0 0 0-3.95-.678l2.42-14.77c2.633.428 3.948.661 6.572 1.165.903.173 1.667.45 2.289.826.623.376 1.107.819 1.452 1.324.346.506.568 1.054.668 1.644.1.59.083 1.196-.053 1.816-.244 1.112-.73 1.95-1.453 2.52-.723.57-1.664.863-2.83.885a180.092 180.092 0 0 1 3.532 7.02M200.03 36.322c.306.078.46.116.765.195.798.205 1.45.213 1.96.02.509-.194.843-.576 1-1.15.156-.575.06-1.074-.29-1.496-.35-.422-.931-.74-1.743-.948-.31-.08-.467-.12-.778-.198a6968.81 6968.81 0 0 0-.913 3.577m6.49 10.37c-1.926-.573-2.891-.848-4.826-1.375a194.693 194.693 0 0 0-2.289-6.552l-1.425 5.577c-1.56-.394-2.341-.585-3.906-.95l3.43-14.568c2.608.608 3.908.931 6.5 1.616.893.236 1.638.565 2.237.984.598.419 1.052.894 1.363 1.422.311.529.497 1.091.556 1.687.06.596.002 1.199-.176 1.808-.32 1.093-.866 1.896-1.628 2.414-.763.518-1.726.745-2.894.686a181.926 181.926 0 0 1 3.057 7.25M209.573 45.627a2.269 2.269 0 0 1 1.172-1.36c.277-.134.577-.213.9-.236.323-.022.646.019.966.122.32.104.605.259.854.466.249.206.445.446.591.717a2.253 2.253 0 0 1 .147 1.787 2.23 2.23 0 0 1-.466.796c-.21.23-.452.411-.728.543a2.497 2.497 0 0 1-1.838.108 2.489 2.489 0 0 1-1.422-1.161 2.303 2.303 0 0 1-.269-.864 2.225 2.225 0 0 1 .093-.918M216.49 47.904a2.27 2.27 0 0 1 1.22-1.32c.281-.125.585-.194.91-.204.324-.012.646.04.963.155.317.114.598.279.84.494.243.216.432.463.568.739.137.275.213.569.231.88.018.31-.028.613-.141.91a2.223 2.223 0 0 1-.494.78 2.328 2.328 0 0 1-.747.518 2.523 2.523 0 0 1-1.846.045 2.49 2.49 0 0 1-1.387-1.21 2.305 2.305 0 0 1-.24-.873c-.023-.31.018-.614.123-.914M223.346 50.419c.116-.296.284-.554.504-.774.221-.22.475-.388.763-.503.286-.115.593-.173.918-.173.326 0 .647.063.961.188.314.126.589.3.825.524.236.224.417.477.545.758a2.258 2.258 0 0 1 .03 1.794 2.216 2.216 0 0 1-.52.763c-.225.215-.48.378-.766.49a2.446 2.446 0 0 1-.91.167 2.54 2.54 0 0 1-.94-.186 2.514 2.514 0 0 1-1.35-1.258 2.294 2.294 0 0 1-.06-1.79"/>
        </g>
        <g>
            <path fill="#FEFEFE" d="M67.737 172.513s-29.698-15.47-40.182-43.082c0 0-22.746 7.201-7.403 27.817 0 0-12.677 13.73 4.98 23.286 0 0-2.304 13.404 8.06 14.156 0 0 3.907.071 8.445-1.973 0 0-1.883 11.873 13.068 6.534l13.032-26.738z"/>
            <path stroke="#1D1D1B" stroke-linecap="round" stroke-linejoin="round" stroke-width="3" d="M63.893 170.182s-25.59-14.255-36.338-40.75c0 0-13.171 2.194-13.171 15.95 0 13.757 26.961 27.131 26.961 27.131"/>
            <path stroke="#1D1D1B" stroke-linecap="round" stroke-linejoin="round" stroke-width="3" d="M20.152 157.248s-7.304 8.005-3.082 15.265c4.223 7.26 10.365 10.318 27.253 6.114"/>
            <path stroke="#1D1D1B" stroke-linecap="round" stroke-linejoin="round" stroke-width="3" d="M51.877 185.432s-8.322 10.417-18.685 9.257c-10.364-1.158-8.06-14.154-8.06-14.154M54.705 199.251s-11.495 6.426-13.625-5.38"/>
            <path fill="#FEFEFE" d="M167.794 258.775a8.262 8.262 0 0 0 6.48-2.733 8.2 8.2 0 0 0-.647-11.615c-3.4-3.03-8.624-2.741-11.667.644-.144.161-.27.331-.4.5l-41.96-37.385-8.065 8.97 41.933 37.362a8.2 8.2 0 0 0 .646 11.614c3.4 3.03 8.624 2.742 11.667-.643a8.183 8.183 0 0 0 2.013-6.714"/>
            <path stroke="#1D1D1B" stroke-linejoin="round" stroke-width="3" d="M167.794 258.775a8.262 8.262 0 0 0 6.48-2.733 8.2 8.2 0 0 0-.647-11.615c-3.4-3.03-8.624-2.741-11.667.644-.144.161-.27.331-.4.5l-41.96-37.385-8.065 8.97 41.933 37.362a8.2 8.2 0 0 0 .646 11.614c3.4 3.03 8.624 2.742 11.667-.643a8.183 8.183 0 0 0 2.013-6.714z"/>
            <path fill="#E4E4E3" d="M165.782 265.489a8.2 8.2 0 0 0-.647-11.615 8.281 8.281 0 0 0-1.52-1.076"/>
            <path stroke="#1D1D1B" stroke-linecap="round" stroke-width="3" d="M165.782 265.489a8.2 8.2 0 0 0-.647-11.615 8.281 8.281 0 0 0-1.52-1.076"/>
            <path fill="#9B6835" d="M118.185 231.43c12.277-3.732 19.19-16.666 15.44-28.887-2.364-7.707-8.405-13.287-15.622-15.425a32.344 32.344 0 0 0-1.406-10.596c-5.272-17.187-23.542-26.864-40.806-21.616-17.264 5.25-26.985 23.437-21.713 40.624 4.773 15.558 20.196 24.961 35.882 22.71 4.546 10.843 16.7 16.694 28.225 13.19"/>
            <path stroke="#1D1D1B" stroke-linejoin="round" stroke-width="3" d="M118.185 231.43c12.277-3.732 19.19-16.666 15.44-28.887-2.364-7.707-8.405-13.287-15.622-15.425a32.344 32.344 0 0 0-1.406-10.596c-5.272-17.187-23.542-26.864-40.806-21.616-17.264 5.25-26.985 23.437-21.713 40.624 4.773 15.558 20.196 24.961 35.882 22.71 4.546 10.843 16.7 16.694 28.225 13.19z"/>
            <path fill="#C99D66" d="M104.004 182.507c-2.946 3.277-8.83 2.82-13.142-1.022-4.312-3.842-5.419-9.613-2.473-12.89 2.947-3.277 8.83-2.82 13.143 1.022 4.312 3.841 5.419 9.612 2.472 12.89M120.64 201.647a4.012 4.012 0 0 1-5.647.311 3.97 3.97 0 0 1-.314-5.622 4.013 4.013 0 0 1 5.648-.312 3.97 3.97 0 0 1 .313 5.623M123.56 208.06a1.438 1.438 0 0 1-2.024.11 1.423 1.423 0 0 1-.112-2.013 1.437 1.437 0 0 1 2.023-.112c.59.525.64 1.427.112 2.014"/>
            <path fill="#FEFEFE" d="M220.407 172.513s29.698-15.47 40.182-43.082c0 0 22.746 7.201 7.403 27.817 0 0 12.677 13.73-4.98 23.286 0 0 2.303 13.404-8.06 14.156 0 0-3.907.071-8.445-1.973 0 0 1.883 11.873-13.068 6.534l-13.032-26.738z"/>
            <path stroke="#1D1D1B" stroke-linecap="round" stroke-linejoin="round" stroke-width="3" d="M224.25 170.182s25.591-14.255 36.34-40.75c0 0 13.17 2.194 13.17 15.95 0 13.757-26.961 27.131-26.961 27.131"/>
            <path stroke="#1D1D1B" stroke-linecap="round" stroke-linejoin="round" stroke-width="3" d="M267.992 157.248s7.304 8.005 3.082 15.265c-4.223 7.26-10.365 10.318-27.253 6.114"/>
            <path stroke="#1D1D1B" stroke-linecap="round" stroke-linejoin="round" stroke-width="3" d="M236.267 185.432s8.321 10.417 18.685 9.257c10.364-1.158 8.061-14.154 8.061-14.154M233.439 199.251s11.496 6.426 13.625-5.38"/>
            <path fill="#FEFEFE" d="M120.35 258.775a8.262 8.262 0 0 1-6.48-2.733 8.2 8.2 0 0 1 .647-11.615c3.4-3.03 8.623-2.741 11.667.644.145.161.271.331.4.5l41.96-37.385 8.065 8.97-41.933 37.362a8.2 8.2 0 0 1-.646 11.614c-3.4 3.03-8.624 2.742-11.667-.643a8.184 8.184 0 0 1-2.013-6.714"/>
            <path stroke="#1D1D1B" stroke-linejoin="round" stroke-width="3" d="M120.35 258.775a8.262 8.262 0 0 1-6.48-2.733 8.2 8.2 0 0 1 .647-11.615c3.4-3.03 8.623-2.741 11.667.644.145.161.271.331.4.5l41.96-37.385 8.065 8.97-41.933 37.362a8.2 8.2 0 0 1-.646 11.614c-3.4 3.03-8.624 2.742-11.667-.643a8.184 8.184 0 0 1-2.013-6.714z"/>
            <path fill="#E4E4E3" d="M122.362 265.489a8.2 8.2 0 0 1 .647-11.615 8.281 8.281 0 0 1 1.52-1.076"/>
            <path stroke="#1D1D1B" stroke-linecap="round" stroke-width="3" d="M122.362 265.489a8.2 8.2 0 0 1 .647-11.615 8.281 8.281 0 0 1 1.52-1.076"/>
            <path fill="#9B6835" d="M169.959 231.43c-12.277-3.732-19.19-16.666-15.44-28.887 2.364-7.707 8.404-13.287 15.622-15.425a32.33 32.33 0 0 1 1.406-10.596c5.273-17.187 23.542-26.864 40.806-21.616 17.264 5.25 26.985 23.437 21.713 40.624-4.773 15.558-20.195 24.961-35.882 22.71-4.546 10.843-16.7 16.694-28.225 13.19"/>
            <path stroke="#1D1D1B" stroke-linejoin="round" stroke-width="3" d="M169.959 231.43c-12.277-3.732-19.19-16.666-15.44-28.887 2.364-7.707 8.404-13.287 15.622-15.425a32.33 32.33 0 0 1 1.406-10.596c5.273-17.187 23.542-26.864 40.806-21.616 17.264 5.25 26.985 23.437 21.713 40.624-4.773 15.558-20.195 24.961-35.882 22.71-4.546 10.843-16.7 16.694-28.225 13.19z"/>
            <path fill="#C99D66" d="M184.14 182.507c2.946 3.277 8.83 2.82 13.142-1.022 4.312-3.842 5.419-9.613 2.472-12.89-2.946-3.277-8.83-2.82-13.141 1.022-4.312 3.841-5.42 9.612-2.473 12.89M167.504 201.647a4.012 4.012 0 0 0 5.647.311 3.97 3.97 0 0 0 .314-5.622 4.013 4.013 0 0 0-5.648-.312 3.97 3.97 0 0 0-.313 5.623M164.584 208.06a1.438 1.438 0 0 0 2.023.11c.59-.525.64-1.426.113-2.013a1.437 1.437 0 0 0-2.023-.112 1.422 1.422 0 0 0-.113 2.014"/>
        </g>
    </g>
</svg>
