<svg xmlns="http://www.w3.org/2000/svg" width="36" height="36" viewBox="0 0 36 36">
    <g fill="none" fill-rule="evenodd">
        <path fill="#FEFEFE" d="M13.106 21.083c-.618-.615-1.105-1.403-1.19-2.305-.084-.904.284-1.884 1.21-2.733.226-.207.35-.35.383-.455.034-.103.043-.252-.148-.622l-2.052-2.749c-.264-.27-.37-.263-.571-.198-.201.064-.478.276-.735.533-1.654 1.693-2.174 3.127-1.92 4.63.254 1.503 1.361 3.16 3.226 5.07l2.287 2.34c1.865 1.91 3.484 3.043 4.952 3.303 1.468.26 2.868-.271 4.522-1.965.251-.263.458-.546.52-.752.064-.206.071-.315-.193-.585l-2.685-2.101c-.361-.196-.507-.186-.608-.152-.102.035-.241.161-.444.392-.83.949-1.786 1.325-2.67 1.239-.88-.086-1.65-.585-2.25-1.218l-1.634-1.672z"/>
        <path stroke="#1D1D1B" stroke-linecap="round" stroke-linejoin="round" stroke-width="1.53" d="M12.715 15.381c.058-.055.082-.073.067-.03-.01.031-.015.054-.022.066l-.01.007a.01.01 0 0 1-.003 0l-.032-.043zm.93 5.16l.008.007 1.641 1.68c.547.576 1.158.923 1.771.983.67.066 1.38-.25 2.02-.98.294-.337.5-.52.771-.613.37-.126.741-.057 1.22.203l.107.07 2.685 2.101.076.068c.43.44.535.83.379 1.343-.103.336-.357.698-.705 1.064-1.768 1.81-3.41 2.502-5.204 2.184-1.62-.287-3.34-1.449-5.365-3.522l-1.537-1.574-.75-.767c-2.022-2.07-3.154-3.828-3.433-5.477-.308-1.819.363-3.487 2.133-5.3.353-.35.708-.612 1.043-.72.517-.164.916-.052 1.352.394l.065.076 2.052 2.75.067.106c.249.481.315.847.196 1.21-.09.272-.267.482-.593.781-.717.658-1.031 1.396-.966 2.099.06.64.403 1.271.968 1.833z"/>
        <path fill="#000" d="M16.854 11.36c.013.247.245.46.487.447 3.833 0 6.93 3.17 6.93 7.095-.003.25.218.48.462.48.245 0 .466-.23.463-.48 0-4.435-3.522-8.041-7.855-8.041-.288.002-.492.27-.487.499m1-3.838c.013.247.245.46.487.447 5.364 0 9.703 4.441 9.703 9.933-.004.25.217.48.462.48.244 0 .465-.23.462-.48 0-6.003-4.763-10.88-10.627-10.88-.276-.002-.492.255-.487.5"/>
        <path stroke="#1D1D1B" stroke-linecap="round" stroke-linejoin="round" stroke-width=".566" d="M16.854 11.36c.013.247.245.46.487.447 3.833 0 6.93 3.17 6.93 7.095-.003.25.218.48.462.48.245 0 .466-.23.463-.48 0-4.435-3.522-8.041-7.855-8.041-.288.002-.492.27-.487.499zm1-3.838c.013.247.245.46.487.447 5.364 0 9.703 4.441 9.703 9.933-.004.25.217.48.462.48.244 0 .465-.23.462-.48 0-6.003-4.763-10.88-10.627-10.88-.276-.002-.492.255-.487.5z"/>
    </g>
</svg>
