<svg xmlns="http://www.w3.org/2000/svg" width="64" height="64" viewBox="0 0 64 64">
    <g fill="none" fill-rule="evenodd">
        <path fill="#94C01F" d="M27.475 20.509s-3.528-5.808-7.321-3.142c0 0-2.975-3.543-6.173-.11-3.198 3.435-.013 4.433-.013 4.433s-3.406 2.581-.618 6.307c0 0-4.905 3.178-4.294 9.151.272 2.66 1.735 5.54 3.715 8.2.814 1.095 1.471-1.316 4.75 1.417 2.225 1.855-.14 3.663.85 4.496.99.833 1.972 1.564 2.898 2.161l19.927-.195s1.725-3.706 2.423-4.225c.88-.653 2.444 0 4.795.447 4.88-4.315 11.228-11.544 7.207-17.312-4.974-7.135-12.002-1.729-12.002-1.729s1.967-5.564-6.287-4.864c1.415-1.37-2.75-8.725-7.566-3.088l-2.29-1.947z"/>
        <path fill="#E20714" d="M51.462 39.95c.003-.028.008-.055.01-.082a4.248 4.248 0 0 0-3.85-4.71c-2.386-.218-4.532 1.538-4.792 3.922l-.007.082 8.639.788z"/>
        <path stroke="#1D1D1B" stroke-linecap="round" stroke-linejoin="round" stroke-width="2" d="M51.462 39.95c.003-.028.008-.055.01-.082a4.248 4.248 0 0 0-3.85-4.71c-2.386-.218-4.532 1.538-4.792 3.922l-.007.082 8.639.788z"/>
        <path fill="#E20714" d="M51.462 39.95c.003-.028.008-.055.01-.082a4.248 4.248 0 0 0-3.85-4.71c-2.386-.218-4.532 1.538-4.792 3.922l-.007.082 8.639.788z"/>
        <path stroke="#1D1D1B" stroke-linecap="round" stroke-linejoin="round" stroke-width="2" d="M51.462 39.95c.003-.028.008-.055.01-.082a4.248 4.248 0 0 0-3.85-4.71c-2.386-.218-4.532 1.538-4.792 3.922l-.007.082 8.639.788z"/>
        <path stroke="#1D1D1B" stroke-linejoin="round" stroke-width="2" d="M4 32c0 11.307 6.838 21.045 16.672 25.443h23.546C54.052 53.045 60.89 43.307 60.89 32H4z"/>
        <path stroke="#1D1D1B" stroke-linecap="round" stroke-linejoin="round" stroke-width="2" d="M19.477 26.066c1.29 0 2.527.225 3.671.64 0 0 1.352-2.144 3.484-2.533"/>
        <path stroke="#1D1D1B" stroke-linejoin="round" stroke-width="2" d="M11.964 29.123a10.689 10.689 0 0 1 7.513-3.057"/>
        <path fill="#94C01F" d="M41.251 8.055s-7.15 3.515-1.62 10.956c0 0 7.792-4.025 1.62-10.956"/>
        <path stroke="#1D1D1B" stroke-linecap="round" stroke-linejoin="round" stroke-width="2" d="M41.251 8.055s-7.15 3.515-1.62 10.956c0 0 7.792-4.025 1.62-10.956z"/>
        <path fill="#94C01F" d="M53.574 17.092s-7.748-2.435-9.002 6.695c0 0 8.896 2.279 9.002-6.695"/>
        <path stroke="#1D1D1B" stroke-linecap="round" stroke-linejoin="round" stroke-width="2" d="M53.574 17.092s-7.748-2.435-9.002 6.695c0 0 8.896 2.279 9.002-6.695z"/>
        <path fill="#E20714" d="M27.18 39.089l-.041-.072c-1.23-2.046-3.915-2.724-5.998-1.516-2.082 1.209-2.772 3.846-1.542 5.892l.044.07 7.536-4.374z"/>
        <path stroke="#1D1D1B" stroke-linecap="round" stroke-linejoin="round" stroke-width="2" d="M27.18 39.089l-.041-.072c-1.23-2.046-3.915-2.724-5.998-1.516-2.082 1.209-2.772 3.846-1.542 5.892l.044.07 7.536-4.374z"/>
        <path fill="#E20714" d="M39.338 47.35l.046-.069c1.273-2.02.639-4.67-1.417-5.922-2.057-1.25-4.755-.627-6.029 1.393l-.042.07 7.442 4.528z"/>
        <path stroke="#1D1D1B" stroke-linecap="round" stroke-linejoin="round" stroke-width="2" d="M39.338 47.35l.046-.069c1.273-2.02.639-4.67-1.417-5.922-2.057-1.25-4.755-.627-6.029 1.393l-.042.07 7.442 4.528z"/>
        <path stroke="#1D1D1B" stroke-linecap="round" stroke-linejoin="round" stroke-width="2" d="M48.476 28.282a8.53 8.53 0 0 0-4.768 1.445c-.237-2.466-2.35-4.396-4.923-4.396-.506 0-.993.075-1.453.213.14-.406.218-.842.218-1.295 0-2.227-1.838-4.032-4.106-4.032a4.113 4.113 0 0 0-3.678 2.239l-3.935-3.281a3.847 3.847 0 0 0-3.593-2.424c-.734 0-1.42.202-2.003.552a3.867 3.867 0 0 0-3.075-1.506c-2.125 0-3.849 1.692-3.849 3.78 0 .783.242 1.51.657 2.113a3.768 3.768 0 0 0-1.938 3.281c0 1.185.554 2.241 1.422 2.935-2.779 1.882-4.6 5.03-4.6 8.597 0 1.25.223 2.449.633 3.56 0 0 .986 2.454 3.138 5.391.448-.14.925-.216 1.42-.216 2.579 0 4.668 2.053 4.668 4.585 0 .527-.091 1.033-.258 1.504.955.688 1.991 1.325 3.114 1.876h19.629c.31-2.37 2.37-4.201 4.867-4.201.968 0 1.87.277 2.63.752 2.54-2.168 5.51-5.42 7.583-9.92.453-.985.665-2.089.665-3.237 0-4.592-3.79-8.315-8.465-8.315z"/>
        <path fill="#E20714" d="M31.333 23.092l.022-.08c.575-2.307-.862-4.635-3.21-5.2-2.35-.566-4.72.846-5.296 3.153l-.018.08 8.502 2.047z"/>
        <path stroke="#1D1D1B" stroke-linecap="round" stroke-linejoin="round" stroke-width="2" d="M31.333 23.092l.022-.08c.575-2.307-.862-4.635-3.21-5.2-2.35-.566-4.72.846-5.296 3.153l-.018.08 8.502 2.047z"/>
        <g>
            <path fill="#E20714" d="M36.421 32.004l.001-.082c-.043-2.387-2.029-4.317-4.436-4.311-2.408.005-4.325 1.944-4.282 4.33 0 .028.003.055.004.083l8.713-.02z"/>
            <path stroke="#1D1D1B" stroke-linecap="round" stroke-linejoin="round" stroke-width="2" d="M36.421 32.004l.001-.082c-.043-2.387-2.029-4.317-4.436-4.311-2.408.005-4.325 1.944-4.282 4.33 0 .028.003.055.004.083l8.713-.02z"/>
        </g>
    </g>
</svg>
