<svg xmlns="http://www.w3.org/2000/svg" width="64" height="64" viewBox="0 0 64 64">
    <g fill="none" fill-rule="evenodd">
        <path fill="#94C01F" d="M12.694 50.048c-2.45-.607-4.367-2.737-4.615-5.434-.199-2.17.73-4.18 2.296-5.435a4.343 4.343 0 0 1-.652-1.925 4.35 4.35 0 0 1 .846-3.01 6.205 6.205 0 0 1-1.55-3.578C8.873 29.083 10.136 26.182 11 25l1.694 3.235v21.813zM51.32 50.048c2.45-.607 4.366-2.737 4.614-5.434.2-2.17-.729-4.18-2.295-5.435a4.344 4.344 0 0 0 .652-1.925 4.35 4.35 0 0 0-.846-3.01 6.205 6.205 0 0 0 1.55-3.578c.145-1.583-.686-3.484-1.55-4.666l-2.125 2.235v21.813z"/>
        <path fill="#EEB156" d="M43.916 10.054H20.104c-5.551 0-10.094 4.62-10.094 10.266 0 3.177 1.438 6.028 3.684 7.915V51.72c0 1.236.995 2.248 2.21 2.248h32.211c1.216 0 2.21-1.012 2.21-2.248V28.235a10.326 10.326 0 0 0 3.685-7.915c0-5.647-4.542-10.266-10.094-10.266"/>
        <path stroke="#1D1D1B" stroke-width="2" d="M43.916 10.054H20.104c-5.551 0-10.094 4.62-10.094 10.266 0 3.177 1.438 6.028 3.684 7.915V51.72c0 1.236.995 2.248 2.21 2.248h32.211c1.216 0 2.21-1.012 2.21-2.248V28.235a10.326 10.326 0 0 0 3.685-7.915c0-5.647-4.542-10.266-10.094-10.266z"/>
        <path stroke="#1D1D1B" stroke-linecap="round" stroke-linejoin="round" stroke-width="2" d="M11 25l-.808 1.402a6.236 6.236 0 0 0-1.173 4.264 6.205 6.205 0 0 0 1.55 3.578 4.35 4.35 0 0 0-.846 3.01c.065.71.297 1.364.652 1.925a6.223 6.223 0 0 0-2.296 5.435c.248 2.697 2.165 4.827 4.615 5.434M53 25l.822 1.402a6.236 6.236 0 0 1 1.173 4.264 6.206 6.206 0 0 1-1.55 3.578c.62.83.949 1.89.846 3.01a4.341 4.341 0 0 1-.652 1.925 6.223 6.223 0 0 1 2.295 5.435c-.248 2.697-2.164 4.827-4.614 5.434"/>
        <path fill="#C99D66" d="M42.505 25.867H21.136c-2.895 0-5.264-2.41-5.264-5.354 0-2.945 2.369-5.355 5.264-5.355h21.369c2.896 0 5.265 2.41 5.265 5.355 0 2.945-2.37 5.354-5.265 5.354"/>
        <path fill="#C99D66" d="M42.832 48.734H20.81c-.827 0-1.504-.688-1.504-1.53v-28c0-.84.677-1.53 1.504-1.53h22.023c.828 0 1.504.69 1.504 1.53v28c0 .842-.676 1.53-1.504 1.53"/>
        <path stroke="#1D1D1B" stroke-linecap="round" stroke-linejoin="round" stroke-width="2" d="M30.303 19.699l-7.58 8.923M41 20L24 41M41.45 33.764l-7.579 8.923"/>
    </g>
</svg>
