<svg xmlns="http://www.w3.org/2000/svg" xmlns:xlink="http://www.w3.org/1999/xlink" width="64" height="64" viewBox="0 0 64 64">
    <defs>
        <path id="a" d="M.085.122h25.257v19.711H.085z"/>
        <path id="c" d="M0 .095h25.257v19.712H0z"/>
    </defs>
    <g fill="none" fill-rule="evenodd">
        <g transform="translate(31.661 7.008)">
            <mask id="b" fill="#fff">
                <use xlink:href="#a"/>
            </mask>
            <path fill="#1D1D1B" d="M22.636 9.974c0 3.708-3.025 6.714-6.755 6.714s-6.755-3.006-6.755-6.714c0-3.708 3.024-6.714 6.755-6.714 3.73 0 6.755 3.006 6.755 6.714M15.384.122L9.927.153C4.482.185.053 4.64.085 10.05c.032 5.412 4.512 9.815 9.957 9.783l5.458-.031c5.445-.032 9.873-4.486 9.842-9.898C25.31 4.492 20.829.09 15.384.122" mask="url(#b)"/>
        </g>
        <path fill="#FEFEFE" d="M54.473 16.976c0 3.766-3.072 6.82-6.862 6.82-3.789 0-6.861-3.054-6.861-6.82 0-3.767 3.072-6.82 6.861-6.82 3.79 0 6.862 3.053 6.862 6.82"/>
        <path fill="#E20714" stroke="#000" stroke-width="2" d="M50.777 16.976a3.156 3.156 0 0 1-3.166 3.146 3.156 3.156 0 0 1-3.165-3.146 3.156 3.156 0 0 1 3.165-3.147 3.156 3.156 0 0 1 3.166 3.147"/>
        <path fill="#1D1D1B" d="M43.176 32.077c0 3.709-3.024 6.714-6.754 6.714-3.731 0-6.755-3.005-6.755-6.714 0-3.708 3.024-6.714 6.755-6.714 3.73 0 6.754 3.006 6.754 6.714m-7.25-9.852l-5.458.032c-5.445.031-9.874 4.485-9.842 9.897.031 5.412 4.512 9.814 9.957 9.783l5.458-.032c5.444-.031 9.873-4.485 9.841-9.897-.031-5.412-4.512-9.814-9.957-9.783"/>
        <path fill="#FEFEFE" d="M43.352 32.071c0 3.767-3.072 6.82-6.861 6.82-3.79 0-6.862-3.053-6.862-6.82 0-3.767 3.072-6.82 6.862-6.82s6.861 3.053 6.861 6.82"/>
        <path fill="#FDD900" stroke="#000" stroke-width="2" d="M39.656 32.071a3.156 3.156 0 0 1-3.165 3.147 3.156 3.156 0 0 1-3.166-3.147 3.156 3.156 0 0 1 3.166-3.146 3.156 3.156 0 0 1 3.165 3.146"/>
        <g transform="translate(9 36.03)">
            <mask id="d" fill="#fff">
                <use xlink:href="#c"/>
            </mask>
            <path fill="#1D1D1B" d="M22.55 9.947c0 3.708-3.024 6.714-6.754 6.714-3.73 0-6.755-3.006-6.755-6.714 0-3.708 3.024-6.714 6.755-6.714 3.73 0 6.755 3.006 6.755 6.714M9.842.127C4.397.158-.032 4.612 0 10.024c.032 5.412 4.513 9.814 9.957 9.783l5.458-.032c5.445-.032 9.874-4.485 9.842-9.897C25.225 4.466 20.744.063 15.3.095L9.842.127z" mask="url(#d)"/>
        </g>
        <path fill="#FEFEFE" d="M31.727 45.971c0 3.767-3.072 6.82-6.862 6.82s-6.861-3.053-6.861-6.82c0-3.767 3.072-6.82 6.861-6.82 3.79 0 6.862 3.053 6.862 6.82"/>
        <path fill="#94C01F" stroke="#000" stroke-width="2" d="M28.03 45.971a3.156 3.156 0 0 1-3.165 3.147A3.156 3.156 0 0 1 21.7 45.97a3.156 3.156 0 0 1 3.165-3.146 3.156 3.156 0 0 1 3.166 3.146"/>
    </g>
</svg>
