<svg xmlns="http://www.w3.org/2000/svg" width="330" height="205" viewBox="0 0 330 205">
    <g fill="none" fill-rule="evenodd">
        <g transform="translate(89 9)">
            <circle cx="79" cy="84" r="77" fill="#B3321E" stroke="#000" stroke-width="3"/>
            <circle cx="76" cy="76" r="76" fill="#B3321E" stroke="#000" stroke-width="3"/>
            <path fill="#FFF" d="M35.326 75.59h5.95v9.86c-1.36.975-2.924 1.723-4.692 2.244a18.672 18.672 0 0 1-5.304.782c-2.493 0-4.737-.527-6.732-1.581-1.995-1.054-3.559-2.522-4.692-4.403-1.133-1.881-1.7-4.012-1.7-6.392 0-2.38.567-4.51 1.7-6.392 1.133-1.881 2.709-3.349 4.726-4.403 2.017-1.054 4.295-1.581 6.834-1.581 2.221 0 4.216.374 5.984 1.122 1.768.748 3.241 1.825 4.42 3.23l-4.284 3.876C35.926 70.184 34 69.3 31.756 69.3c-2.04 0-3.683.618-4.93 1.853-1.247 1.235-1.87 2.884-1.87 4.947 0 1.315.283 2.488.85 3.519a6.095 6.095 0 0 0 2.38 2.414c1.02.578 2.187.867 3.502.867a8.6 8.6 0 0 0 3.638-.782V75.59zm21.442 6.086h-3.672V88h-6.732V64.2h10.88c2.153 0 4.023.357 5.61 1.071 1.586.714 2.81 1.734 3.672 3.06.86 1.326 1.292 2.884 1.292 4.675 0 1.723-.403 3.224-1.207 4.505-.805 1.28-1.955 2.284-3.451 3.009L68.294 88h-7.208l-4.318-6.324zm3.196-11.254c-.703-.612-1.746-.918-3.128-.918h-3.74v6.97h3.74c1.382 0 2.425-.3 3.128-.901.702-.6 1.054-1.456 1.054-2.567 0-1.11-.352-1.972-1.054-2.584zM82.73 81.676H79.06V88h-6.732V64.2h10.88c2.153 0 4.023.357 5.61 1.071 1.587.714 2.81 1.734 3.672 3.06.861 1.326 1.292 2.884 1.292 4.675 0 1.723-.402 3.224-1.207 4.505-.805 1.28-1.955 2.284-3.45 3.009L94.256 88H87.05l-4.318-6.324zm3.196-11.254c-.703-.612-1.745-.918-3.128-.918h-3.74v6.97h3.74c1.383 0 2.425-.3 3.128-.901.703-.6 1.054-1.456 1.054-2.567 0-1.11-.351-1.972-1.054-2.584zm22.768 11.254h-3.672V88H98.29V64.2h10.88c2.153 0 4.023.357 5.61 1.071 1.586.714 2.81 1.734 3.672 3.06.861 1.326 1.292 2.884 1.292 4.675 0 1.723-.403 3.224-1.207 4.505-.805 1.28-1.955 2.284-3.451 3.009L120.22 88h-7.208l-4.318-6.324zm3.196-11.254c-.703-.612-1.746-.918-3.128-.918h-3.74v6.97h3.74c1.382 0 2.425-.3 3.128-.901.702-.6 1.054-1.456 1.054-2.567 0-1.11-.352-1.972-1.054-2.584zm11.275-6.222h7.684l-1.292 15.13h-5.134l-1.258-15.13zm1.054 23.069c-.725-.691-1.088-1.536-1.088-2.533 0-1.02.363-1.859 1.088-2.516.726-.657 1.655-.986 2.788-.986 1.134 0 2.057.329 2.771.986s1.071 1.496 1.071 2.516c0 .997-.362 1.842-1.088 2.533-.725.691-1.643 1.037-2.754 1.037-1.133 0-2.062-.346-2.788-1.037z"/>
        </g>
        <g opacity=".3">
            <path stroke="#000" stroke-dasharray="3.023999905586243,4.535999965667725" stroke-linecap="round" stroke-width="2.268" d="M63.28 104.49c-31.937 21.54-40.001 65.43-18.013 98.03"/>
            <path fill="#000" d="M67.445 110.687a.489.489 0 0 1-.373.073l-1.046-.188a.462.462 0 0 1-.317-.197.462.462 0 0 1-.064-.368l1.71-8.176-8.221-1.477a.462.462 0 0 1-.317-.197.462.462 0 0 1-.064-.368l.218-1.04a.489.489 0 0 1 .58-.392l9.75 1.751c.139.026.244.091.316.198a.462.462 0 0 1 .064.367l-2.028 9.695a.489.489 0 0 1-.208.319z"/>
        </g>
    </g>
</svg>
